# xmcd CD database file
#
# Track frame offsets:
#	150
#	52772
#	103742
#	147140
#
# Disc length: 3211 seconds
#
# Revision: 0
# Processed by: cddbd v1.5.1PL2 Copyright (c) Steve Scherf et al.
# Submitted via: CDex 1.51
#
DISCID=2c0c8904
DTITLE=Lars Werner och hans vänner - Lars Werner och hans vänner
DYEAR=1967
DGENRE=Jazz
TTITLE0=Vår i Helsingfors
TTITLE1=Cirklar och trioler
TTITLE2=Vals för Nannie - Till Idrees - Ballad för tenorsaxofon
TTITLE3=Viggbyholms blås - Ryska snuvan
EXTD=YEAR: 1967
EXTT0=
EXTT1=
EXTT2=
EXTT3=
PLAYORDER=
